REM DIRINDEX 1\2\6,1\2\7,1\2\8,1\2\9,1\3\10,1\3\11,1\4\12,1\4\13,1\4\14,1\5\15,1\5\16,1\5\17
REM DIRNAME cjc020,folder01,folder02,folder03,folder04,folder05,folder06,folder07,folder08,folder09,folder10,folder11,folder12,folder13,folder14,folder15,folder16
TITLE ""
FILE "1900_2_sec16_1577_1600.mp3" MP3
  TRACK 01 AUDIO
    TITLE "0:"
    INDEX 01 00:00:00
  TRACK 02 AUDIO
    TITLE "13:cjc020_5305"
    INDEX 01 00:00:17
  TRACK 03 AUDIO
    TITLE "0:"
    INDEX 01 00:01:28
  TRACK 04 AUDIO
    TITLE "14:cjc020_5306"
    INDEX 01 00:01:30
  TRACK 05 AUDIO
    TITLE "0:"
    INDEX 01 00:03:66
  TRACK 06 AUDIO
    TITLE "13:cjc020_5307"
    INDEX 01 00:04:48
  TRACK 07 AUDIO
    TITLE "0:"
    INDEX 01 00:05:42
  TRACK 08 AUDIO
    TITLE "14:cjc020_5308"
    INDEX 01 00:05:61
  TRACK 09 AUDIO
    TITLE "0:"
    INDEX 01 00:08:19
  TRACK 10 AUDIO
    TITLE "13:cjc020_5309"
    INDEX 01 00:08:72
  TRACK 11 AUDIO
    TITLE "0:"
    INDEX 01 00:10:00
  TRACK 12 AUDIO
    TITLE "14:cjc020_5310"
    INDEX 01 00:10:02
  TRACK 13 AUDIO
    TITLE "0:"
    INDEX 01 00:11:19
  TRACK 14 AUDIO
    TITLE "13:cjc020_5311"
    INDEX 01 00:11:72
  TRACK 15 AUDIO
    TITLE "0:"
    INDEX 01 00:13:06
  TRACK 16 AUDIO
    TITLE "14:cjc020_5312"
    INDEX 01 00:13:08
  TRACK 17 AUDIO
    TITLE "0:"
    INDEX 01 00:14:51
  TRACK 18 AUDIO
    TITLE "13:cjc020_5313"
    INDEX 01 00:15:32
  TRACK 19 AUDIO
    TITLE "0:"
    INDEX 01 00:16:36
  TRACK 20 AUDIO
    TITLE "14:cjc020_5314"
    INDEX 01 00:16:38
  TRACK 21 AUDIO
    TITLE "0:"
    INDEX 01 00:20:18
  TRACK 22 AUDIO
    TITLE "13:cjc020_5315"
    INDEX 01 00:20:71
  TRACK 23 AUDIO
    TITLE "0:"
    INDEX 01 00:22:09
  TRACK 24 AUDIO
    TITLE "14:cjc020_5316"
    INDEX 01 00:22:17
  TRACK 25 AUDIO
    TITLE "0:"
    INDEX 01 00:23:40
  TRACK 26 AUDIO
    TITLE "13:cjc020_5317"
    INDEX 01 00:24:16
  TRACK 27 AUDIO
    TITLE "0:"
    INDEX 01 00:25:39
  TRACK 28 AUDIO
    TITLE "14:cjc020_5318"
    INDEX 01 00:25:43
  TRACK 29 AUDIO
    TITLE "0:"
    INDEX 01 00:28:51
  TRACK 30 AUDIO
    TITLE "13:cjc020_5319"
    INDEX 01 00:29:31
  TRACK 31 AUDIO
    TITLE "0:"
    INDEX 01 00:30:46
  TRACK 32 AUDIO
    TITLE "14:cjc020_5320"
    INDEX 01 00:30:52
  TRACK 33 AUDIO
    TITLE "0:"
    INDEX 01 00:33:28
  TRACK 34 AUDIO
    TITLE "13:cjc020_5321"
    INDEX 01 00:34:08
  TRACK 35 AUDIO
    TITLE "0:"
    INDEX 01 00:35:21
  TRACK 36 AUDIO
    TITLE "14:cjc020_5322"
    INDEX 01 00:35:25
  TRACK 37 AUDIO
    TITLE "0:"
    INDEX 01 00:36:58
  TRACK 38 AUDIO
    TITLE "13:cjc020_5323"
    INDEX 01 00:37:38
  TRACK 39 AUDIO
    TITLE "0:"
    INDEX 01 00:38:57
  TRACK 40 AUDIO
    TITLE "14:cjc020_5324"
    INDEX 01 00:38:61
  TRACK 41 AUDIO
    TITLE "0:"
    INDEX 01 00:41:12
  TRACK 42 AUDIO
    TITLE "13:cjc020_5325"
    INDEX 01 00:41:71
  TRACK 43 AUDIO
    TITLE "0:"
    INDEX 01 00:43:15
  TRACK 44 AUDIO
    TITLE "14:cjc020_5326"
    INDEX 01 00:43:21
  TRACK 45 AUDIO
    TITLE "0:"
    INDEX 01 00:46:70
  TRACK 46 AUDIO
    TITLE "13:cjc020_5327"
    INDEX 01 00:47:52
  TRACK 47 AUDIO
    TITLE "0:"
    INDEX 01 00:48:73
  TRACK 48 AUDIO
    TITLE "14:cjc020_5328"
    INDEX 01 00:49:00
  TRACK 49 AUDIO
    TITLE "0:"
    INDEX 01 00:51:22
  TRACK 50 AUDIO
    TITLE "13:cjc020_5329"
    INDEX 01 00:52:04
  TRACK 51 AUDIO
    TITLE "0:"
    INDEX 01 00:53:13
  TRACK 52 AUDIO
    TITLE "14:cjc020_5330"
    INDEX 01 00:53:15
  TRACK 53 AUDIO
    TITLE "0:"
    INDEX 01 00:54:36
  TRACK 54 AUDIO
    TITLE "13:cjc020_5331"
    INDEX 01 00:55:14
  TRACK 55 AUDIO
    TITLE "0:"
    INDEX 01 00:56:27
  TRACK 56 AUDIO
    TITLE "14:cjc020_5332"
    INDEX 01 00:56:29
  TRACK 57 AUDIO
    TITLE "0:"
    INDEX 01 00:59:04
  TRACK 58 AUDIO
    TITLE "13:cjc020_5333"
    INDEX 01 00:59:55
  TRACK 59 AUDIO
    TITLE "0:"
    INDEX 01 01:01:07
  TRACK 60 AUDIO
    TITLE "14:cjc020_5334"
    INDEX 01 01:01:11
  TRACK 61 AUDIO
    TITLE "0:"
    INDEX 01 01:04:03
  TRACK 62 AUDIO
    TITLE "13:cjc020_5335"
    INDEX 01 01:04:58
  TRACK 63 AUDIO
    TITLE "0:"
    INDEX 01 01:05:73
  TRACK 64 AUDIO
    TITLE "14:cjc020_5336"
    INDEX 01 01:06:04
  TRACK 65 AUDIO
    TITLE "0:"
    INDEX 01 01:08:38
  TRACK 66 AUDIO
    TITLE "13:cjc020_5337"
    INDEX 01 01:09:18
  TRACK 67 AUDIO
    TITLE "0:"
    INDEX 01 01:10:37
  TRACK 68 AUDIO
    TITLE "14:cjc020_5338"
    INDEX 01 01:10:41
  TRACK 69 AUDIO
    TITLE "0:"
    INDEX 01 01:13:24
  TRACK 70 AUDIO
    TITLE "13:cjc020_5339"
    INDEX 01 01:14:08
  TRACK 71 AUDIO
    TITLE "0:"
    INDEX 01 01:15:19
  TRACK 72 AUDIO
    TITLE "14:cjc020_5340"
    INDEX 01 01:15:23
  TRACK 73 AUDIO
    TITLE "0:"
    INDEX 01 01:19:01
  TRACK 74 AUDIO
    TITLE "13:cjc020_5341"
    INDEX 01 01:19:54
  TRACK 75 AUDIO
    TITLE "0:"
    INDEX 01 01:21:06
  TRACK 76 AUDIO
    TITLE "14:cjc020_5342"
    INDEX 01 01:21:12
  TRACK 77 AUDIO
    TITLE "0:"
    INDEX 01 01:24:12
  TRACK 78 AUDIO
    TITLE "13:cjc020_5343"
    INDEX 01 01:24:63
  TRACK 79 AUDIO
    TITLE "0:"
    INDEX 01 01:26:05
  TRACK 80 AUDIO
    TITLE "14:cjc020_5344"
    INDEX 01 01:26:09
  TRACK 81 AUDIO
    TITLE "0:"
    INDEX 01 01:28:33
  TRACK 82 AUDIO
    TITLE "13:cjc020_5345"
    INDEX 01 01:29:15
  TRACK 83 AUDIO
    TITLE "0:"
    INDEX 01 01:30:20
  TRACK 84 AUDIO
    TITLE "14:cjc020_5346"
    INDEX 01 01:30:24
  TRACK 85 AUDIO
    TITLE "0:"
    INDEX 01 01:34:28
  TRACK 86 AUDIO
    TITLE "13:cjc020_5347"
    INDEX 01 01:35:08
  TRACK 87 AUDIO
    TITLE "0:"
    INDEX 01 01:36:15
  TRACK 88 AUDIO
    TITLE "14:cjc020_5348"
    INDEX 01 01:36:19
  TRACK 89 AUDIO
    TITLE "0:"
    INDEX 01 01:39:61
  TRACK 90 AUDIO
    TITLE "13:cjc020_5349"
    INDEX 01 01:40:38
  TRACK 91 AUDIO
    TITLE "0:"
    INDEX 01 01:41:61
  TRACK 92 AUDIO
    TITLE "14:cjc020_5350"
    INDEX 01 01:41:65
  TRACK 93 AUDIO
    TITLE "0:"
    INDEX 01 01:44:42
  TRACK 94 AUDIO
    TITLE "13:cjc020_5351"
    INDEX 01 01:45:24
  TRACK 95 AUDIO
    TITLE "0:"
    INDEX 01 01:46:37
  TRACK 96 AUDIO
    TITLE "14:cjc020_5352"
    INDEX 01 01:46:43
  TRACK 97 AUDIO
    TITLE "0:"
    INDEX 01 01:48:73
